<svg width="943" height="967" viewBox="0 0 943 967" fill="none" xmlns="http://www.w3.org/2000/svg">
<path d="M851 440C851 662.571 670.571 843 448 843C225.429 843 45 662.571 45 440C45 217.429 225.429 37 448 37C670.571 37 851 217.429 851 440Z" fill="#0A2A22"/>
<circle cx="472.5" cy="434.5" r="398.5" fill="url(#paint0_linear)"/>
<circle cx="472" cy="434" r="318" fill="#D2F9E5"/>
<path fill-rule="evenodd" clip-rule="evenodd" d="M461 751.813C631.533 746.016 768 605.945 768 434C768 262.055 631.533 121.984 461 116.187C464.651 116.063 468.318 116 472 116C647.626 116 790 258.373 790 434C790 609.627 647.626 752 472 752C468.318 752 464.651 751.937 461 751.813Z" fill="#05201A"/>
<path fill-rule="evenodd" clip-rule="evenodd" d="M347 277L338 289.931L338.3 290H338V578H381L390 565L381 559.6V495H564V578H606L615 565L606 562.12V290H576L579 284.5L573 277L564 290V375H381V290H347V277ZM564 459V411H381V459H564Z" fill="#0F0F0F"/>
<g filter="url(#filter0_d)">
<path fill-rule="evenodd" clip-rule="evenodd" d="M390 277H347V565H390V482H573V565H615V277H573V362H390V277ZM573 446V398H390V446H573Z" fill="url(#paint1_linear)"/>
</g>
<path d="M448.156 106L448.156 54.8125H463.906C468.406 54.8125 472.426 55.832 475.965 57.8711C479.527 59.8867 482.305 62.7695 484.297 66.5195C486.289 70.2461 487.285 74.4883 487.285 79.2461V81.6016C487.285 86.3594 486.301 90.5898 484.332 94.293C482.387 97.9961 479.633 100.867 476.07 102.906C472.508 104.945 468.488 105.977 464.012 106H448.156ZM458.703 63.3555L458.703 97.5273H463.801C467.926 97.5273 471.078 96.1797 473.258 93.4844C475.437 90.7891 476.551 86.9336 476.598 81.918V79.2109C476.598 74.0078 475.52 70.0703 473.363 67.3984C471.207 64.7031 468.055 63.3555 463.906 63.3555H458.703Z" fill="url(#paint2_linear)"/>
<path d="M514.134 89.0747L505.801 88.0003L503.405 106.585L492.945 105.236L499.49 54.4688L518.354 56.9009C524.351 57.6742 528.804 59.6072 531.714 62.7C534.624 65.7928 535.764 69.7799 535.134 74.6613C534.688 78.1249 533.559 80.9215 531.749 83.0512C529.964 85.1606 527.461 86.7048 524.239 87.6836L532.547 109.846L532.485 110.334L521.257 108.886L514.134 89.0747ZM506.894 79.5274L515.332 80.6154C517.958 80.9541 520.078 80.5538 521.69 79.4147C523.305 78.2523 524.264 76.4972 524.566 74.1495C524.875 71.7552 524.432 69.784 523.237 68.2357C522.066 66.6904 520.074 65.7364 517.261 65.3737L508.858 64.2903L506.894 79.5274Z" fill="url(#paint3_linear)"/>
<path d="M574.081 114.912C571.668 116.629 568.623 117.66 564.947 118.005C561.277 118.326 557.401 117.952 553.32 116.882C549.035 115.758 545.516 113.842 542.761 111.133C540.036 108.407 538.255 105.032 537.42 101.009C536.608 96.9923 536.809 92.5747 538.024 87.7565L538.907 84.3899C540.203 79.4476 542.151 75.3911 544.751 72.2205C547.38 69.033 550.509 66.8973 554.137 65.8134C557.793 64.7127 561.73 64.7153 565.947 65.821C571.819 67.3608 576.041 69.9703 578.614 73.6495C581.192 77.306 582.086 81.8896 581.295 87.4005L571.365 84.7966C571.655 81.8438 571.19 79.5049 569.971 77.7797C568.774 76.0606 566.815 74.8443 564.095 74.1309C560.626 73.2213 557.643 73.8323 555.146 75.9638C552.648 78.0954 550.714 81.7313 549.341 86.8717L548.512 90.0343C547.151 95.226 547.108 99.4067 548.385 102.576C549.662 105.746 552.205 107.83 556.013 108.829C559.845 109.834 562.791 109.734 564.851 108.53L567.089 99.9941L557.806 97.5597L559.776 90.0442L579.262 95.154L574.081 114.912Z" fill="url(#paint4_linear)"/>
<path d="M587.857 118.515L611.775 128.198L608.596 136.052L572.457 121.421L574.779 115.685L611.923 91.3918L588.493 81.906L591.699 73.9874L627.283 88.3941L625.014 93.9991L587.857 118.515Z" fill="url(#paint5_linear)"/>
<path d="M673.601 146.793C674.568 145.497 675.786 144.768 677.252 144.605C678.719 144.442 680.119 144.858 681.453 145.854C682.787 146.849 683.584 148.073 683.845 149.525C684.125 150.992 683.782 152.373 682.814 153.669C681.847 154.965 680.621 155.688 679.135 155.837C677.663 155.967 676.27 155.541 674.955 154.56C673.603 153.55 672.796 152.32 672.535 150.867C672.307 149.41 672.662 148.052 673.601 146.793Z" fill="url(#paint6_linear)"/>
<path d="M712.466 213.851L752.486 181.936L762.306 194.25C765.111 197.768 766.82 201.546 767.433 205.584C768.078 209.626 767.556 213.595 765.866 217.491C764.195 221.372 761.499 224.796 757.779 227.762L755.938 229.231C752.218 232.197 748.296 234.065 744.174 234.835C740.066 235.623 736.104 235.26 732.289 233.746C728.473 232.232 725.161 229.732 722.351 226.247L712.466 213.851ZM752.382 195.508L725.666 216.814L728.844 220.799C731.416 224.024 734.435 225.649 737.901 225.672C741.368 225.696 745.076 224.163 749.027 221.072L751.143 219.384C755.211 216.14 757.617 212.842 758.362 209.491C759.125 206.124 758.213 202.819 755.626 199.576L752.382 195.508Z" fill="url(#paint7_linear)"/>
<path d="M765.899 255.983L761.543 248.798L745.519 258.512L740.052 249.493L783.825 222.958L793.684 239.222C796.819 244.393 798.084 249.08 797.48 253.283C796.876 257.486 794.47 260.864 790.261 263.415C787.275 265.225 784.385 266.087 781.591 265.999C778.829 265.919 776.061 264.925 773.287 263.016L761.14 283.33L760.719 283.585L754.85 273.904L765.899 255.983ZM768.849 244.369L773.259 251.645C774.632 253.91 776.266 255.317 778.162 255.867C780.078 256.405 782.048 256.061 784.072 254.833C786.137 253.582 787.402 252.007 787.867 250.107C788.345 248.228 787.849 246.076 786.379 243.651L781.987 236.405L768.849 244.369Z" fill="url(#paint8_linear)"/>
<path d="M783.076 318.961C780.228 318.145 777.524 316.407 774.963 313.748C772.423 311.079 770.299 307.815 768.591 303.958C766.798 299.907 766.102 295.96 766.503 292.118C766.934 288.287 768.462 284.791 771.087 281.63C773.721 278.49 777.301 275.893 781.825 273.839L785.008 272.43C789.68 270.362 794.066 269.356 798.166 269.412C802.297 269.48 805.918 270.595 809.027 272.755C812.168 274.928 814.62 278.007 816.385 281.993C818.842 287.544 819.434 292.472 818.162 296.778C816.911 301.074 813.884 304.63 809.083 307.448L804.927 298.061C807.417 296.446 808.955 294.625 809.544 292.596C810.142 290.588 809.871 288.298 808.733 285.727C807.281 282.448 804.944 280.496 801.72 279.873C798.497 279.249 794.448 280.004 789.573 282.136L786.584 283.459C781.676 285.632 778.381 288.205 776.699 291.18C775.017 294.154 774.972 297.442 776.566 301.042C778.17 304.664 780.084 306.905 782.31 307.765L790.379 304.193L786.494 295.417L793.599 292.272L801.753 310.693L783.076 318.961Z" fill="url(#paint9_linear)"/>
<path d="M788.847 331.977L796.189 356.715L788.066 359.125L776.973 321.749L782.905 319.988L825.057 333.881L817.865 309.649L826.055 307.218L836.978 344.022L831.181 345.742L788.847 331.977Z" fill="url(#paint10_linear)"/>
<path d="M820.199 416.646C821.815 416.595 823.145 417.091 824.186 418.137C825.228 419.182 825.776 420.536 825.829 422.199C825.882 423.862 825.423 425.249 824.45 426.359C823.478 427.492 822.184 428.085 820.568 428.137C818.951 428.188 817.622 427.68 816.579 426.611C815.56 425.542 815.024 424.187 814.971 422.547C814.917 420.861 815.377 419.463 816.349 418.353C817.346 417.265 818.63 416.697 820.199 416.646Z" fill="url(#paint11_linear)"/>
<path d="M792.003 488.842L841.907 500.232L838.402 515.587C837.401 519.974 835.513 523.666 832.737 526.663C829.979 529.687 826.551 531.754 822.452 532.861C818.375 533.974 814.018 534.002 809.379 532.943L807.083 532.419C802.444 531.36 798.539 529.459 795.367 526.715C792.189 523.995 790.003 520.671 788.808 516.744C787.613 512.817 787.502 508.669 788.475 504.3L792.003 488.842ZM831.232 508.613L797.916 501.009L796.782 505.979C795.864 510.001 796.477 513.374 798.619 516.099C800.762 518.824 804.273 520.767 809.153 521.929L811.792 522.531C816.864 523.689 820.943 523.514 824.028 522.006C827.135 520.504 829.151 517.73 830.074 513.686L831.232 508.613Z" fill="url(#paint12_linear)"/>
<path d="M792.377 556.886L795.279 549.001L777.694 542.529L781.337 532.631L829.374 550.31L822.806 568.159C820.717 573.834 817.842 577.745 814.179 579.894C810.516 582.042 806.376 582.267 801.757 580.567C798.479 579.361 796.004 577.638 794.33 575.399C792.671 573.19 791.723 570.406 791.485 567.047L768.03 570.216L767.568 570.046L771.477 559.422L792.377 556.886ZM803.297 551.951L800.358 559.936C799.444 562.421 799.362 564.576 800.114 566.402C800.888 568.235 802.386 569.56 804.607 570.378C806.873 571.211 808.893 571.218 810.668 570.398C812.436 569.6 813.809 567.87 814.788 565.209L817.715 557.257L803.297 551.951Z" fill="url(#paint13_linear)"/>
<path d="M753.849 609.581C752.712 606.847 752.384 603.649 752.866 599.988C753.37 596.338 754.597 592.643 756.548 588.903C758.597 584.975 761.249 581.97 764.503 579.888C767.767 577.837 771.453 576.852 775.561 576.933C779.658 577.035 783.92 578.214 788.347 580.471L791.433 582.081C795.963 584.444 799.484 587.246 801.997 590.487C804.519 593.759 805.905 597.284 806.155 601.062C806.414 604.872 805.536 608.71 803.519 612.575C800.711 617.957 797.228 621.492 793.068 623.182C788.93 624.882 784.262 624.734 779.065 622.736L783.814 613.635C786.628 614.574 789.012 614.642 790.965 613.837C792.907 613.052 794.529 611.414 795.83 608.92C797.488 605.741 797.557 602.696 796.034 599.787C794.512 596.878 791.398 594.183 786.691 591.701L783.793 590.189C779.034 587.707 774.968 586.735 771.593 587.275C768.219 587.814 765.621 589.829 763.8 593.32C761.968 596.832 761.41 599.726 762.125 602.003L769.949 606.084L774.388 597.575L781.276 601.169L771.959 619.029L753.849 609.581Z" fill="url(#paint14_linear)"/>
<path d="M747.27 622.209L732.507 643.373L725.558 638.526L747.864 606.549L752.939 610.089L768.358 651.707L782.82 630.975L789.826 635.863L767.862 667.35L762.903 663.89L747.27 622.209Z" fill="url(#paint15_linear)"/>
<path d="M700.621 699.512C701.67 700.743 702.11 702.092 701.942 703.559C701.775 705.025 701.057 706.297 699.79 707.376C698.523 708.455 697.153 708.96 695.678 708.891C694.186 708.838 692.916 708.196 691.868 706.964C690.82 705.733 690.388 704.376 690.574 702.895C690.774 701.431 691.499 700.168 692.748 699.104C694.033 698.01 695.413 697.498 696.887 697.566C698.359 697.668 699.604 698.316 700.621 699.512Z" fill="url(#paint16_linear)"/>
<path d="M626.597 722.48L648.807 768.598L634.616 775.432C630.562 777.384 626.498 778.21 622.425 777.908C618.341 777.638 614.588 776.246 611.166 773.731C607.754 771.238 605.016 767.848 602.951 763.562L601.929 761.439C599.865 757.153 598.917 752.914 599.084 748.724C599.23 744.543 600.465 740.762 602.79 737.379C605.115 733.996 608.289 731.323 612.312 729.359L626.597 722.48ZM635.598 765.477L620.771 734.69L616.178 736.901C612.462 738.691 610.206 741.273 609.412 744.647C608.618 748.021 609.287 751.978 611.421 756.517L612.596 758.956C614.853 763.644 617.533 766.724 620.635 768.196C623.747 769.688 627.172 769.535 630.91 767.735L635.598 765.477Z" fill="url(#paint17_linear)"/>
<path d="M573.631 765.198L581.606 762.55L575.701 744.766L585.711 741.443L601.84 790.023L583.79 796.016C578.051 797.921 573.2 798.112 569.236 796.588C565.273 795.064 562.516 791.966 560.965 787.295C559.864 783.981 559.668 780.972 560.375 778.267C561.067 775.592 562.653 773.115 565.131 770.835L548.029 754.473L547.874 754.005L558.618 750.438L573.631 765.198ZM584.298 770.658L576.223 773.339C573.71 774.173 571.974 775.453 571.016 777.179C570.065 778.927 569.963 780.924 570.708 783.171C571.469 785.462 572.724 787.046 574.472 787.923C576.197 788.807 578.406 788.802 581.098 787.908L589.139 785.238L584.298 770.658Z" fill="url(#paint18_linear)"/>
<path d="M508.411 767.931C509.84 765.336 512.136 763.086 515.299 761.181C518.466 759.299 522.12 757.954 526.261 757.148C530.609 756.301 534.612 756.5 538.269 757.746C541.907 759.019 544.976 761.287 547.473 764.55C549.948 767.816 551.684 771.884 552.679 776.752L553.345 780.168C554.321 785.184 554.326 789.684 553.359 793.668C552.374 797.681 550.482 800.962 547.683 803.513C544.866 806.091 541.318 807.797 537.039 808.63C531.081 809.791 526.145 809.272 522.23 807.073C518.321 804.898 515.526 801.156 513.848 795.848L523.924 793.885C524.944 796.671 526.378 798.577 528.225 799.602C530.049 800.632 532.342 800.878 535.103 800.34C538.622 799.655 541.045 797.81 542.37 794.806C543.695 791.802 543.861 787.686 542.867 782.46L542.242 779.25C541.216 773.982 539.44 770.197 536.914 767.895C534.389 765.594 531.193 764.819 527.329 765.572C523.441 766.329 520.83 767.697 519.496 769.676L521.183 778.337L530.603 776.503L532.089 784.129L512.316 787.98L508.411 767.931Z" fill="url(#paint19_linear)"/>
<path d="M494.436 770.661L468.684 772.314L468.141 763.859L507.05 761.361L507.446 767.535L484.521 805.539L509.747 803.92L510.294 812.445L471.982 814.905L471.595 808.87L494.436 770.661Z" fill="url(#paint20_linear)"/>
<path d="M404.913 782.386C404.604 783.973 403.824 785.158 402.573 785.942C401.322 786.725 399.88 786.957 398.247 786.639C396.613 786.321 395.364 785.564 394.498 784.369C393.61 783.169 393.32 781.776 393.629 780.188C393.938 778.601 394.73 777.418 396.004 776.639C397.273 775.884 398.713 775.663 400.323 775.976C401.98 776.299 403.241 777.058 404.106 778.253C404.944 779.467 405.213 780.844 404.913 782.386Z" fill="url(#paint21_linear)"/>
<path d="M340.802 738.832L318.592 784.95L304.402 778.116C300.348 776.164 297.169 773.501 294.865 770.129C292.53 766.767 291.278 762.965 291.11 758.722C290.932 754.5 291.876 750.245 293.94 745.959L294.962 743.837C297.026 739.55 299.749 736.166 303.129 733.683C306.489 731.191 310.215 729.799 314.31 729.508C318.404 729.216 322.473 730.031 326.517 731.952L340.802 738.832ZM312.797 772.677L327.623 741.889L323.031 739.677C319.314 737.888 315.889 737.734 312.756 739.217C309.623 740.699 306.947 743.69 304.728 748.189L303.554 750.628C301.296 755.315 300.559 759.331 301.343 762.674C302.116 766.038 304.371 768.62 308.109 770.42L312.797 772.677Z" fill="url(#paint22_linear)"/>
<path d="M274.38 724.056L281.422 728.64L291.645 712.936L300.484 718.689L272.559 761.589L256.619 751.213C251.551 747.914 248.378 744.241 247.098 740.192C245.819 736.143 246.521 732.056 249.206 727.931C251.111 725.004 253.342 722.974 255.897 721.841C258.42 720.715 261.345 720.409 264.673 720.925L266.803 697.353L267.072 696.94L276.559 703.116L274.38 724.056ZM276.762 735.8L269.631 731.159C267.412 729.714 265.329 729.155 263.382 729.482C261.423 729.828 259.797 730.993 258.506 732.977C257.189 735.001 256.733 736.969 257.137 738.882C257.522 740.783 258.903 742.506 261.28 744.053L268.381 748.676L276.762 735.8Z" fill="url(#paint23_linear)"/>
<path d="M231.58 674.768C234.499 674.267 237.689 674.659 241.151 675.944C244.598 677.247 247.927 679.266 251.139 682C254.512 684.872 256.852 688.126 258.158 691.762C259.431 695.4 259.571 699.213 258.578 703.2C257.567 707.172 255.469 711.064 252.284 714.878L250.027 717.528C246.715 721.419 243.2 724.228 239.482 725.957C235.73 727.688 231.985 728.255 228.246 727.657C224.474 727.063 220.928 725.352 217.609 722.526C212.987 718.591 210.315 714.408 209.593 709.977C208.856 705.564 210.039 701.046 213.143 696.424L220.96 703.079C219.418 705.613 218.822 707.923 219.172 710.006C219.504 712.074 220.741 714.02 222.883 715.843C225.613 718.167 228.566 718.911 231.741 718.074C234.916 717.237 238.237 714.801 241.703 710.765L243.823 708.276C247.302 704.189 249.154 700.44 249.379 697.031C249.604 693.621 248.217 690.64 245.219 688.087C242.203 685.52 239.505 684.331 237.127 684.522L231.406 691.242L238.714 697.463L233.678 703.379L218.339 690.321L231.58 674.768Z" fill="url(#paint24_linear)"/>
<path d="M220.731 665.544L203.383 646.441L209.655 640.745L235.867 669.607L231.286 673.767L187.281 679.539L204.274 698.251L197.95 703.994L172.14 675.575L176.617 671.509L220.731 665.544Z" fill="url(#paint25_linear)"/>
<path d="M155.749 602.863C154.315 603.611 152.902 603.74 151.51 603.25C150.117 602.76 149.036 601.778 148.267 600.302C147.497 598.827 147.31 597.378 147.704 595.956C148.088 594.514 148.997 593.418 150.431 592.67C151.865 591.922 153.283 591.803 154.686 592.314C156.069 592.835 157.139 593.823 157.898 595.278C158.679 596.774 158.871 598.233 158.477 599.655C158.05 601.067 157.141 602.136 155.749 602.863Z" fill="url(#paint26_linear)"/>
<path d="M149.827 525.584L99.9228 536.974L96.4181 521.619C95.4168 517.232 95.5163 513.086 96.7167 509.182C97.8891 505.261 100.082 501.911 103.294 499.135C106.484 496.363 110.398 494.448 115.037 493.389L117.333 492.865C121.972 491.807 126.315 491.825 130.364 492.92C134.407 493.993 137.819 496.039 140.599 499.058C143.38 502.078 145.28 505.767 146.299 510.126L149.827 525.584ZM105.905 524.791L139.22 517.187L138.085 512.217C137.168 508.195 135.152 505.422 132.039 503.897C128.927 502.371 124.92 502.144 120.02 503.214L117.381 503.817C112.308 504.975 108.709 506.902 106.584 509.599C104.436 512.301 103.824 515.674 104.747 519.718L105.905 524.791Z" fill="url(#paint27_linear)"/>
<path d="M119.966 464.44L120.773 472.803L139.425 471.004L140.438 481.502L89.4868 486.417L87.6605 467.486C87.0798 461.467 87.9734 456.695 90.3412 453.17C92.709 449.645 96.3424 447.646 101.242 447.174C104.718 446.838 107.695 447.316 110.174 448.608C112.628 449.878 114.69 451.975 116.362 454.898L136.12 441.866L136.61 441.819L137.697 453.087L119.966 464.44ZM112.27 473.624L111.453 465.155C111.199 462.519 110.337 460.542 108.867 459.224C107.375 457.908 105.45 457.364 103.094 457.591C100.691 457.823 98.868 458.693 97.6243 460.202C96.3784 461.688 95.8916 463.843 96.1639 466.665L96.9775 475.099L112.27 473.624Z" fill="url(#paint28_linear)"/>
<path d="M131.815 400.247C134.027 402.217 135.709 404.956 136.863 408.464C137.994 411.971 138.491 415.832 138.356 420.049C138.214 424.476 137.129 428.334 135.101 431.622C133.05 434.886 130.156 437.373 126.419 439.082C122.684 440.768 118.332 441.555 113.364 441.442L109.886 441.331C104.779 441.167 100.391 440.17 96.721 438.341C93.0285 436.487 90.2502 433.913 88.3861 430.617C86.4994 427.297 85.6259 423.458 85.7656 419.101C85.9602 413.034 87.5647 408.337 90.5791 405.01C93.5701 401.682 97.84 399.791 103.389 399.335L103.06 409.596C100.116 409.97 97.9395 410.944 96.529 412.517C95.1193 414.066 94.3693 416.246 94.2792 419.057C94.1642 422.642 95.4237 425.414 98.0575 427.374C100.691 429.335 104.667 430.412 109.984 430.606L113.251 430.711C118.616 430.883 122.701 429.994 125.507 428.043C128.313 426.093 129.78 423.151 129.906 419.215C130.033 415.256 129.28 412.406 127.647 410.666L118.828 410.383L118.52 419.976L110.754 419.726L111.4 399.592L131.815 400.247Z" fill="url(#paint29_linear)"/>
<path d="M132.264 386.015L136.382 360.541L144.746 361.894L138.524 400.382L132.415 399.395L100.465 368.588L96.4312 393.541L87.9978 392.178L94.1249 354.279L100.094 355.244L132.264 386.015Z" fill="url(#paint30_linear)"/>
<path d="M140.753 296.127C139.274 295.473 138.292 294.449 137.807 293.055C137.322 291.661 137.416 290.203 138.09 288.682C138.763 287.16 139.779 286.11 141.137 285.532C142.505 284.933 143.928 284.961 145.407 285.615C146.885 286.27 147.862 287.305 148.338 288.72C148.792 290.126 148.687 291.579 148.023 293.079C147.34 294.622 146.32 295.682 144.962 296.26C143.592 296.807 142.189 296.763 140.753 296.127Z" fill="url(#paint31_linear)"/>
<path d="M197.481 243.316L157.461 211.401L167.281 199.087C170.087 195.569 173.39 193.062 177.191 191.566C180.988 190.038 184.973 189.664 189.147 190.444C193.303 191.21 197.24 193.077 200.96 196.043L202.802 197.512C206.522 200.478 209.215 203.885 210.883 207.733C212.566 211.563 213.093 215.506 212.466 219.563C211.839 223.62 210.139 227.405 207.367 230.92L197.481 243.316ZM170.716 208.482L197.433 229.788L200.611 225.802C203.183 222.577 204.095 219.272 203.346 215.887C202.598 212.503 200.278 209.229 196.386 206.065L194.269 204.377C190.201 201.133 186.451 199.521 183.017 199.541C179.566 199.546 176.547 201.17 173.96 204.414L170.716 208.482Z" fill="url(#paint32_linear)"/>
<path d="M226.667 181.847L220.632 187.692L233.667 201.153L226.091 208.49L190.481 171.719L204.144 158.488C208.487 154.281 212.775 152.005 217.007 151.658C221.24 151.311 225.068 152.906 228.492 156.442C230.921 158.95 232.404 161.576 232.94 164.32C233.477 167.03 233.123 169.95 231.88 173.079L254.387 180.401L254.73 180.755L246.598 188.63L226.667 181.847ZM214.688 181.555L220.8 175.636C222.702 173.794 223.711 171.887 223.825 169.917C223.924 167.929 223.149 166.085 221.502 164.385C219.823 162.651 218.006 161.768 216.05 161.737C214.112 161.689 212.124 162.652 210.087 164.625L204 170.519L214.688 181.555Z" fill="url(#paint33_linear)"/>
<path d="M284.242 151.087C284.081 154.045 282.988 157.068 280.966 160.157C278.929 163.227 276.22 166.024 272.839 168.547C269.289 171.196 265.596 172.753 261.76 173.218C257.93 173.649 254.181 172.937 250.515 171.082C246.868 169.212 243.54 166.301 240.531 162.347L238.449 159.557C235.393 155.463 233.436 151.41 232.578 147.4C231.725 143.358 232.006 139.58 233.421 136.068C234.84 132.523 237.297 129.447 240.79 126.839C245.655 123.209 250.328 121.534 254.808 121.817C259.275 122.081 263.416 124.24 267.231 128.294L259.004 134.434C256.876 132.366 254.758 131.271 252.649 131.149C250.558 131.013 248.386 131.786 246.132 133.468C243.259 135.613 241.876 138.326 241.986 141.608C242.095 144.889 243.732 148.669 246.895 152.947L248.851 155.567C252.061 159.868 255.303 162.508 258.577 163.486C261.851 164.464 265.066 163.776 268.222 161.42C271.396 159.051 273.155 156.686 273.498 154.324L268.22 147.252L260.529 152.993L255.881 146.766L272.026 134.718L284.242 151.087Z" fill="url(#paint34_linear)"/>
<path d="M295.649 142.564L318.133 129.901L322.291 137.284L288.32 156.416L285.284 151.025L289.449 106.838L267.424 119.242L263.232 111.798L296.682 92.9592L299.65 98.228L295.649 142.564Z" fill="url(#paint35_linear)"/>
<path d="M371.219 93.1569C370.809 91.5926 370.998 90.1862 371.785 88.9379C372.572 87.6896 373.77 86.8544 375.38 86.4323C376.99 86.0102 378.444 86.1498 379.742 86.8512C381.063 87.5467 381.929 88.6765 382.339 90.2408C382.75 91.8051 382.55 93.2144 381.74 94.4687C380.924 95.7003 379.723 96.5241 378.136 96.9403C376.503 97.3683 375.038 97.2317 373.739 96.5303C372.458 95.8003 371.618 94.6758 371.219 93.1569Z" fill="url(#paint36_linear)"/>
<defs>
<filter id="filter0_d" x="342" y="276" width="278" height="298" filterUnits="userSpaceOnUse" color-interpolation-filters="sRGB">
<feFlood flood-opacity="0" result="BackgroundImageFix"/>
<feColorMatrix in="SourceAlpha" type="matrix" values="0 0 0 0 0 0 0 0 0 0 0 0 0 0 0 0 0 0 127 0"/>
<feOffset dy="4"/>
<feGaussianBlur stdDeviation="2.5"/>
<feColorMatrix type="matrix" values="0 0 0 0 0 0 0 0 0 0 0 0 0 0 0 0 0 0 0.5 0"/>
<feBlend mode="normal" in2="BackgroundImageFix" result="effect1_dropShadow"/>
<feBlend mode="normal" in="SourceGraphic" in2="effect1_dropShadow" result="shape"/>
</filter>
<linearGradient id="paint0_linear" x1="-51" y1="969" x2="706" y2="341.5" gradientUnits="userSpaceOnUse">
<stop stop-color="#B5D2C3"/>
<stop offset="1" stop-color="#175748"/>
</linearGradient>
<linearGradient id="paint1_linear" x1="184.5" y1="619.5" x2="645" y2="378.5" gradientUnits="userSpaceOnUse">
<stop stop-color="#D2F9E5"/>
<stop offset="1" stop-color="#155546"/>
</linearGradient>
<linearGradient id="paint2_linear" x1="467" y1="-45" x2="467" y2="123" gradientUnits="userSpaceOnUse">
<stop offset="0.788369" stop-color="#D2F9E5"/>
</linearGradient>
<linearGradient id="paint3_linear" x1="530.397" y1="-41.1768" x2="508.943" y2="125.217" gradientUnits="userSpaceOnUse">
<stop offset="0.788369" stop-color="#D2F9E5"/>
</linearGradient>
<linearGradient id="paint4_linear" x1="590.629" y1="-29.1332" x2="548.073" y2="133.151" gradientUnits="userSpaceOnUse">
<stop offset="0.788369" stop-color="#D2F9E5"/>
</linearGradient>
<linearGradient id="paint5_linear" x1="646.605" y1="-10.387" x2="583.646" y2="145.123" gradientUnits="userSpaceOnUse">
<stop offset="0.788369" stop-color="#D2F9E5"/>
</linearGradient>
<linearGradient id="paint6_linear" x1="753.423" y1="49.7727" x2="653.078" y2="184.227" gradientUnits="userSpaceOnUse">
<stop offset="0.788369" stop-color="#D2F9E5"/>
</linearGradient>
<linearGradient id="paint7_linear" x1="841.489" y1="135.06" x2="710.321" y2="239.663" gradientUnits="userSpaceOnUse">
<stop offset="0.788369" stop-color="#D2F9E5"/>
</linearGradient>
<linearGradient id="paint8_linear" x1="877.873" y1="187.487" x2="734.405" y2="274.458" gradientUnits="userSpaceOnUse">
<stop offset="0.788369" stop-color="#D2F9E5"/>
</linearGradient>
<linearGradient id="paint9_linear" x1="906.012" y1="242.087" x2="752.6" y2="309.998" gradientUnits="userSpaceOnUse">
<stop offset="0.788369" stop-color="#D2F9E5"/>
</linearGradient>
<linearGradient id="paint10_linear" x1="926.255" y1="297.539" x2="765.418" y2="345.274" gradientUnits="userSpaceOnUse">
<stop offset="0.788369" stop-color="#D2F9E5"/>
</linearGradient>
<linearGradient id="paint11_linear" x1="945.821" y1="418.562" x2="778.136" y2="423.94" gradientUnits="userSpaceOnUse">
<stop offset="0.788369" stop-color="#D2F9E5"/>
</linearGradient>
<linearGradient id="paint12_linear" x1="934.049" y1="540.591" x2="770.485" y2="503.259" gradientUnits="userSpaceOnUse">
<stop offset="0.788369" stop-color="#D2F9E5"/>
</linearGradient>
<linearGradient id="paint13_linear" x1="915.745" y1="601.725" x2="758.297" y2="543.782" gradientUnits="userSpaceOnUse">
<stop offset="0.788369" stop-color="#D2F9E5"/>
</linearGradient>
<linearGradient id="paint14_linear" x1="890.6" y1="657.767" x2="741.855" y2="580.167" gradientUnits="userSpaceOnUse">
<stop offset="0.788369" stop-color="#D2F9E5"/>
</linearGradient>
<linearGradient id="paint15_linear" x1="859.868" y1="708.167" x2="722.267" y2="612.183" gradientUnits="userSpaceOnUse">
<stop offset="0.788369" stop-color="#D2F9E5"/>
</linearGradient>
<linearGradient id="paint16_linear" x1="777.448" y1="798.922" x2="668.694" y2="671.174" gradientUnits="userSpaceOnUse">
<stop offset="0.788369" stop-color="#D2F9E5"/>
</linearGradient>
<linearGradient id="paint17_linear" x1="674.702" y1="865.801" x2="601.909" y2="714.645" gradientUnits="userSpaceOnUse">
<stop offset="0.788369" stop-color="#D2F9E5"/>
</linearGradient>
<linearGradient id="paint18_linear" x1="615.493" y1="889.606" x2="562.627" y2="730.382" gradientUnits="userSpaceOnUse">
<stop offset="0.788369" stop-color="#D2F9E5"/>
</linearGradient>
<linearGradient id="paint19_linear" x1="556.001" y1="904.89" x2="523.93" y2="740.213" gradientUnits="userSpaceOnUse">
<stop offset="0.788369" stop-color="#D2F9E5"/>
</linearGradient>
<linearGradient id="paint20_linear" x1="497.434" y1="912.287" x2="486.685" y2="744.861" gradientUnits="userSpaceOnUse">
<stop offset="0.788369" stop-color="#D2F9E5"/>
</linearGradient>
<linearGradient id="paint21_linear" x1="375.092" y1="904.432" x2="407.162" y2="739.755" gradientUnits="userSpaceOnUse">
<stop offset="0.788369" stop-color="#D2F9E5"/>
</linearGradient>
<linearGradient id="paint22_linear" x1="258.742" y1="865.801" x2="331.535" y2="714.645" gradientUnits="userSpaceOnUse">
<stop offset="0.788369" stop-color="#D2F9E5"/>
</linearGradient>
<linearGradient id="paint23_linear" x1="203.214" y1="834.353" x2="294.739" y2="693.746" gradientUnits="userSpaceOnUse">
<stop offset="0.788369" stop-color="#D2F9E5"/>
</linearGradient>
<linearGradient id="paint24_linear" x1="154.172" y1="797.368" x2="262.926" y2="669.62" gradientUnits="userSpaceOnUse">
<stop offset="0.788369" stop-color="#D2F9E5"/>
</linearGradient>
<linearGradient id="paint25_linear" x1="111.873" y1="756.19" x2="236.07" y2="643.398" gradientUnits="userSpaceOnUse">
<stop offset="0.788369" stop-color="#D2F9E5"/>
</linearGradient>
<linearGradient id="paint26_linear" x1="41.7356" y1="655.642" x2="190.481" y2="578.041" gradientUnits="userSpaceOnUse">
<stop offset="0.788369" stop-color="#D2F9E5"/>
</linearGradient>
<linearGradient id="paint27_linear" x1="-0.605398" y1="540.591" x2="162.959" y2="503.258" gradientUnits="userSpaceOnUse">
<stop offset="0.788369" stop-color="#D2F9E5"/>
</linearGradient>
<linearGradient id="paint28_linear" x1="-10.6381" y1="477.569" x2="156.357" y2="461.459" gradientUnits="userSpaceOnUse">
<stop offset="0.788369" stop-color="#D2F9E5"/>
</linearGradient>
<linearGradient id="paint29_linear" x1="-12.3001" y1="416.167" x2="155.384" y2="421.545" gradientUnits="userSpaceOnUse">
<stop offset="0.788369" stop-color="#D2F9E5"/>
</linearGradient>
<linearGradient id="paint30_linear" x1="-6.47895" y1="357.423" x2="159.141" y2="384.2" gradientUnits="userSpaceOnUse">
<stop offset="0.788369" stop-color="#D2F9E5"/>
</linearGradient>
<linearGradient id="paint31_linear" x1="28.4028" y1="239.896" x2="181.815" y2="307.807" gradientUnits="userSpaceOnUse">
<stop offset="0.788369" stop-color="#D2F9E5"/>
</linearGradient>
<linearGradient id="paint32_linear" x1="91.955" y1="135.06" x2="223.124" y2="239.663" gradientUnits="userSpaceOnUse">
<stop offset="0.788369" stop-color="#D2F9E5"/>
</linearGradient>
<linearGradient id="paint33_linear" x1="134.972" y1="87.9217" x2="251.687" y2="208.44" gradientUnits="userSpaceOnUse">
<stop offset="0.788369" stop-color="#D2F9E5"/>
</linearGradient>
<linearGradient id="paint34_linear" x1="181.941" y1="48.3392" x2="282.286" y2="182.793" gradientUnits="userSpaceOnUse">
<stop offset="0.788369" stop-color="#D2F9E5"/>
</linearGradient>
<linearGradient id="paint35_linear" x1="231.499" y1="16.2643" x2="313.827" y2="162.446" gradientUnits="userSpaceOnUse">
<stop offset="0.788369" stop-color="#D2F9E5"/>
</linearGradient>
<linearGradient id="paint36_linear" x1="345.134" y1="-29.7419" x2="387.689" y2="132.542" gradientUnits="userSpaceOnUse">
<stop offset="0.788369" stop-color="#D2F9E5"/>
</linearGradient>
</defs>
</svg>
